<?xml version="1.0" encoding="utf-8"?>
<svg width="256" height="256" viewBox="0 0 256 256" xmlns="http://www.w3.org/2000/svg" aria-labelledby="title" role="img">
  <title id="title">Clapperboard</title>
  <!-- background (transparent) -->
  <rect width="100%" height="100%" fill="none"/>

  <!-- clapper top (tilted) -->
  <g transform="translate(18,18) rotate(-18 80 40)">
    <rect x="0" y="0" width="220" height="56" rx="6" ry="6" fill="#2b2b2b"/>
    <!-- diagonal stripes -->
    <g mask="url(#maskStripes)">
      <rect x="0" y="0" width="220" height="56" fill="#ffffff" opacity="0.95"/>
    </g>
    <!-- stripe separators -->
    <g>
      <rect x="8" y="6" width="32" height="44" transform="skewX(-18)" fill="#2b2b2b"/>
      <rect x="44" y="6" width="32" height="44" transform="skewX(-18)" fill="#ffffff"/>
      <rect x="80" y="6" width="32" height="44" transform="skewX(-18)" fill="#2b2b2b"/>
      <rect x="116" y="6" width="32" height="44" transform="skewX(-18)" fill="#ffffff"/>
      <rect x="152" y="6" width="32" height="44" transform="skewX(-18)" fill="#2b2b2b"/>
      <rect x="188" y="6" width="24" height="44" transform="skewX(-18)" fill="#ffffff"/>
    </g>
  </g>

  <!-- body of clapperboard -->
  <g transform="translate(24,86)">
    <rect x="0" y="0" width="208" height="124" rx="8" ry="8" fill="#111214"/>
    <!-- inner panel -->
    <rect x="12" y="12" width="184" height="100" rx="4" ry="4" fill="#0f1720"/>
    <!-- horizontal lines to suggest text/sections -->
    <g fill="#bfc9d9" opacity="0.9">
      <rect x="20" y="22" width="140" height="8" rx="3" />
      <rect x="20" y="40" width="120" height="8" rx="3" />
      <rect x="20" y="58" width="160" height="8" rx="3" />
      <rect x="20" y="76" width="90"  height="8" rx="3" />
    </g>

    <!-- small film sprocket holes (left) -->
    <g fill="#bfc9d9" opacity="0.18">
      <rect x="8" y="22" width="8" height="12" rx="2"/>
      <rect x="8" y="44" width="8" height="12" rx="2"/>
      <rect x="8" y="66" width="8" height="12" rx="2"/>
    </g>

    <!-- subtle highlight and shadow -->
    <rect x="0" y="0" width="208" height="124" rx="8" ry="8" fill="none" stroke="#000" stroke-opacity="0.25"/>
    <path d="M6 6 C40 18, 168 18, 202 6" fill="none" stroke="#ffffff" stroke-opacity="0.03" stroke-width="14" stroke-linecap="round"/>
  </g>

  <!-- definitions -->
  <defs>
    <mask id="maskStripes">
      <rect x="0" y="0" width="220" height="56" fill="white"/>
      <!-- we will reveal only diagonal bands by making the rest transparent -->
      <g fill="black" transform="skewX(-18)">
        <rect x="-20" y="-8" width="30" height="80"/>
        <rect x="16" y="-8" width="30" height="80"/>
        <rect x="52" y="-8" width="30" height="80"/>
        <rect x="88" y="-8" width="30" height="80"/>
        <rect x="124" y="-8" width="30" height="80"/>
        <rect x="160" y="-8" width="30" height="80"/>
        <rect x="196" y="-8" width="30" height="80"/>
      </g>
    </mask>
  </defs>
</svg>
